<svg xmlns="http://www.w3.org/2000/svg" viewBox="0 0 72 72" role="img" aria-label="Crestfield Institute of Applied Intelligence">
  <rect width="72" height="72" rx="14" fill="#004b7a"/>
  <path d="M36 5 61 15v20.5C61 51.5 50.4 62.3 36 67 21.6 62.3 11 51.5 11 35.5V15L36 5Z" fill="none" stroke="#fff" stroke-width="2.8" stroke-linecap="round" stroke-linejoin="round"/>
  <path d="M22 30 36 20l14 10M21 50h30M25 33v15M32.3 33v15M39.7 33v15M47 33v15M24 54c4-1.5 8-1.5 12 1 4-2.5 8-2.5 12-1M36 29.5v6M33 32.5h6" fill="none" stroke="#fff" stroke-width="2.35" stroke-linecap="round" stroke-linejoin="round"/>
</svg>
